<svg xmlns="http://www.w3.org/2000/svg" style="display:none" aria-hidden="true">
  <defs>
    <!-- UI icons -->
    <symbol id="icon-search" viewBox="0 0 24 24"><circle cx="11" cy="11" r="7"/><line x1="21" y1="21" x2="16.65" y2="16.65"/></symbol>
    <symbol id="icon-cart" viewBox="0 0 24 24"><polyline points="3,4 5,4 7,15 18,15 20,7 6,7"/><circle cx="9" cy="20" r="1.6"/><circle cx="17" cy="20" r="1.6"/></symbol>
    <symbol id="icon-user" viewBox="0 0 24 24"><circle cx="12" cy="8" r="4"/><path d="M4 20c0-4.5 3.6-8 8-8s8 3.5 8 8"/></symbol>
    <symbol id="icon-heart" viewBox="0 0 24 24"><path d="M12 21s-7.5-4.7-10-9.3C0.3 8.2 2 4.5 5.5 4.5c2 0 3.5 1.2 4.5 2.8 1-1.6 2.5-2.8 4.5-2.8 3.5 0 5.2 3.7 3.5 7.2C19.5 16.3 12 21 12 21z"/></symbol>
    <symbol id="icon-heart-filled" viewBox="0 0 24 24" stroke="none"><path d="M12 21s-7.5-4.7-10-9.3C0.3 8.2 2 4.5 5.5 4.5c2 0 3.5 1.2 4.5 2.8 1-1.6 2.5-2.8 4.5-2.8 3.5 0 5.2 3.7 3.5 7.2C19.5 16.3 12 21 12 21z" fill="currentColor"/></symbol>
    <symbol id="icon-grid" viewBox="0 0 24 24"><rect x="3" y="3" width="7" height="7" rx="1.5"/><rect x="14" y="3" width="7" height="7" rx="1.5"/><rect x="3" y="14" width="7" height="7" rx="1.5"/><rect x="14" y="14" width="7" height="7" rx="1.5"/></symbol>
    <symbol id="icon-flame" viewBox="0 0 24 24"><path d="M12 2c1 3-3 4-3 7a3 3 0 006 0c0-1-1-2-1-3 2 1 3 3 3 6a5 5 0 01-10 0c0-4 3-6 5-10z"/></symbol>
    <symbol id="icon-chevron-right" viewBox="0 0 24 24"><polyline points="9,5 16,12 9,19"/></symbol>
    <symbol id="icon-chevron-left" viewBox="0 0 24 24"><polyline points="15,5 8,12 15,19"/></symbol>
    <symbol id="icon-plus" viewBox="0 0 24 24"><line x1="12" y1="5" x2="12" y2="19"/><line x1="5" y1="12" x2="19" y2="12"/></symbol>
    <symbol id="icon-minus" viewBox="0 0 24 24"><line x1="5" y1="12" x2="19" y2="12"/></symbol>
    <symbol id="icon-trash" viewBox="0 0 24 24"><path d="M4 7h16"/><path d="M9 7V4h6v3"/><path d="M6 7l1 13h10l1-13"/></symbol>
    <symbol id="icon-menu" viewBox="0 0 24 24"><line x1="4" y1="7" x2="20" y2="7"/><line x1="4" y1="12" x2="20" y2="12"/><line x1="4" y1="17" x2="20" y2="17"/></symbol>
    <symbol id="icon-close" viewBox="0 0 24 24"><line x1="6" y1="6" x2="18" y2="18"/><line x1="18" y1="6" x2="6" y2="18"/></symbol>
    <symbol id="icon-check" viewBox="0 0 24 24"><polyline points="5,13 10,18 19,7"/></symbol>
    <symbol id="icon-arrow-right" viewBox="0 0 24 24"><line x1="5" y1="12" x2="19" y2="12"/><polyline points="13,6 19,12 13,18"/></symbol>
    <symbol id="icon-mail" viewBox="0 0 24 24"><rect x="3" y="5" width="18" height="14" rx="2"/><polyline points="3,7 12,13 21,7"/></symbol>
    <symbol id="icon-truck" viewBox="0 0 24 24"><rect x="1" y="6" width="13" height="10" rx="1"/><path d="M14 10h4l3 3v3h-7z"/><circle cx="6" cy="19" r="1.7"/><circle cx="17" cy="19" r="1.7"/></symbol>
    <symbol id="icon-shield-check" viewBox="0 0 24 24"><path d="M12 2l8 3v6c0 5-3.5 8.5-8 10-4.5-1.5-8-5-8-10V5l8-3z"/><polyline points="8.5,12 11,14.5 15.5,9.5"/></symbol>
    <symbol id="icon-star" viewBox="0 0 24 24"><path d="M12 2l3 6.5 7 .8-5.2 4.8 1.4 7-6.2-3.6-6.2 3.6 1.4-7L2 9.3l7-.8z"/></symbol>
    <symbol id="icon-rotate" viewBox="0 0 24 24"><path d="M4 12a8 8 0 0114-5.3"/><polyline points="18,3 18,7 14,7"/><path d="M20 12a8 8 0 01-14 5.3"/><polyline points="6,21 6,17 10,17"/></symbol>
    <symbol id="icon-headset" viewBox="0 0 24 24"><path d="M4 14v-2a8 8 0 0116 0v2"/><rect x="2" y="14" width="4" height="6" rx="2"/><rect x="18" y="14" width="4" height="6" rx="2"/></symbol>
    <symbol id="icon-lock" viewBox="0 0 24 24"><rect x="5" y="11" width="14" height="9" rx="2"/><path d="M8 11V7a4 4 0 018 0v4"/></symbol>
    <symbol id="icon-eye" viewBox="0 0 24 24"><path d="M2 12s4-7 10-7 10 7 10 7-4 7-10 7-10-7-10-7z"/><circle cx="12" cy="12" r="3"/></symbol>
    <symbol id="icon-eye-off" viewBox="0 0 24 24"><path d="M2 12s4-7 10-7 10 7 10 7-4 7-10 7-10-7-10-7z"/><circle cx="12" cy="12" r="3"/><line x1="3" y1="3" x2="21" y2="21"/></symbol>
    <symbol id="icon-logout" viewBox="0 0 24 24"><path d="M9 21H5a2 2 0 01-2-2V5a2 2 0 012-2h4"/><polyline points="16,17 21,12 16,7"/><line x1="21" y1="12" x2="9" y2="12"/></symbol>
    <symbol id="icon-receipt" viewBox="0 0 24 24"><path d="M6 2h12v20l-3-2-3 2-3-2-3 2V2z"/><line x1="9" y1="7" x2="15" y2="7"/><line x1="9" y1="11" x2="15" y2="11"/></symbol>
    <symbol id="icon-bell" viewBox="0 0 24 24"><path d="M6 8a6 6 0 0112 0c0 5 2 6 2 6H4s2-1 2-6z"/><path d="M9.5 19a2.5 2.5 0 005 0"/></symbol>
    <!-- category / product icons -->
    <symbol id="icon-camera" viewBox="0 0 24 24"><rect x="3" y="7" width="18" height="13" rx="2"/><path d="M8 7l2-3h4l2 3"/><circle cx="12" cy="14" r="4"/></symbol>
    <symbol id="icon-gamepad" viewBox="0 0 24 24"><rect x="2" y="8" width="20" height="9" rx="4"/><line x1="7" y1="12" x2="10" y2="12"/><line x1="8.5" y1="9.5" x2="8.5" y2="14.5"/><circle cx="17" cy="11" r="1"/><circle cx="19" cy="13" r="1"/></symbol>
    <symbol id="icon-shirt" viewBox="0 0 24 24"><path d="M8 3l4 2 4-2 4 4-3 3v11H7V10l-3-3z"/></symbol>
    <symbol id="icon-home" viewBox="0 0 24 24"><path d="M4 11l8-7 8 7"/><path d="M6 10v10h12V10"/></symbol>
    <symbol id="icon-sparkles" viewBox="0 0 24 24"><path d="M12 3l1.5 4.5L18 9l-4.5 1.5L12 15l-1.5-4.5L6 9l4.5-1.5z"/><path d="M19 15l.6 1.8 1.9.6-1.9.6-.6 1.9-.6-1.9-1.9-.6 1.9-.6z"/></symbol>
    <symbol id="icon-dumbbell" viewBox="0 0 24 24"><line x1="6" y1="12" x2="18" y2="12"/><rect x="2" y="9" width="3" height="6" rx="1"/><rect x="19" y="9" width="3" height="6" rx="1"/><rect x="5" y="10" width="2" height="4"/><rect x="17" y="10" width="2" height="4"/></symbol>
    <symbol id="icon-toy" viewBox="0 0 24 24"><rect x="3" y="8" width="18" height="13" rx="1"/><line x1="12" y1="8" x2="12" y2="21"/><line x1="3" y1="13" x2="21" y2="13"/><path d="M9 8c0-2 1.5-4 3-4s3 2 3 4"/></symbol>
    <symbol id="icon-book" viewBox="0 0 24 24"><path d="M4 5c2-1 5-1 7 0v14c-2-1-5-1-7 0V5z"/><path d="M20 5c-2-1-5-1-7 0v14c2-1 5-1 7 0V5z"/></symbol>
    <symbol id="icon-package" viewBox="0 0 24 24"><path d="M21 8l-9-5-9 5 9 5 9-5z"/><path d="M3 8v9l9 5 9-5V8"/><line x1="12" y1="13" x2="12" y2="22"/></symbol>
    <symbol id="icon-mouse" viewBox="0 0 24 24"><rect x="7" y="3" width="10" height="18" rx="5"/><line x1="12" y1="3" x2="12" y2="10"/></symbol>
    <symbol id="icon-watch" viewBox="0 0 24 24"><rect x="7" y="8" width="10" height="8" rx="2"/><path d="M9 8V5h6v3"/><path d="M9 16v3h6v-3"/></symbol>
    <symbol id="icon-keyboard" viewBox="0 0 24 24"><rect x="2" y="6" width="20" height="12" rx="2"/><line x1="6" y1="15.5" x2="18" y2="15.5"/><rect x="5" y="9" width="2" height="2"/><rect x="9" y="9" width="2" height="2"/><rect x="13" y="9" width="2" height="2"/><rect x="17" y="9" width="2" height="2"/></symbol>
    <symbol id="icon-earbuds" viewBox="0 0 24 24"><circle cx="8" cy="10" r="3"/><circle cx="16" cy="10" r="3"/><line x1="8" y1="13" x2="8" y2="18"/><line x1="16" y1="13" x2="16" y2="18"/></symbol>
    <symbol id="icon-speaker" viewBox="0 0 24 24"><rect x="5" y="2" width="14" height="20" rx="2"/><circle cx="12" cy="8" r="2.3"/><circle cx="12" cy="15.5" r="3.3"/></symbol>
    <symbol id="icon-phone" viewBox="0 0 24 24"><rect x="7" y="2" width="10" height="20" rx="2"/><line x1="11" y1="18" x2="13" y2="18"/></symbol>
    <!-- social icons -->
    <symbol id="icon-facebook" viewBox="0 0 24 24"><path d="M15 4h-2a4 4 0 00-4 4v2H7v3h2v7h3v-7h2.5l.5-3H12V8a1 1 0 011-1h2V4z"/></symbol>
    <symbol id="icon-instagram" viewBox="0 0 24 24"><rect x="3" y="3" width="18" height="18" rx="5"/><circle cx="12" cy="12" r="4"/><circle cx="17.5" cy="6.5" r="1" fill="currentColor" stroke="none"/></symbol>
    <symbol id="icon-x" viewBox="0 0 24 24"><line x1="4" y1="4" x2="20" y2="20"/><line x1="20" y1="4" x2="4" y2="20"/></symbol>
    <symbol id="icon-youtube" viewBox="0 0 24 24"><rect x="2" y="5" width="20" height="14" rx="4"/><polygon points="10,9 16,12 10,15" fill="currentColor" stroke="none"/></symbol>
  </defs>
</svg>
